<svg width="16" height="16" viewBox="0 0 15 15" fill="#FFFFFFF2" xmlns="http://www.w3.org/2000/svg"><g><mask id="path-1-outside-1" maskUnits="userSpaceOnUse" x="0" y="-0.5" width="15" height="15"><rect y="-0.5" width="15" height="15"></rect><path d="M11.8748 10.58L4.42057 3.12406C4.39176 3.09578 4.36938 3.06162 4.35495 3.02391C4.34052 2.98621 4.33438 2.94584 4.33694 2.90554C4.3395 2.86525 4.35071 2.82598 4.3698 2.79041C4.38888 2.75483 4.41541 2.72379 4.44756 2.69937C5.53037 1.91179 6.85875 1.53658 8.19359 1.6413C9.52844 1.74602 10.7821 2.32379 11.7288 3.2706C12.6755 4.21741 13.2532 5.47107 13.3578 6.80592C13.4625 8.14077 13.0872 9.46912 12.2995 10.5519C12.2751 10.584 12.244 10.6106 12.2085 10.6296C12.1729 10.6487 12.1336 10.6599 12.0933 10.6625C12.053 10.6651 12.0127 10.6589 11.975 10.6445C11.9373 10.6301 11.9031 10.6077 11.8748 10.5789V10.58ZM2.17507 8.00937C1.97928 6.57398 2.34677 5.11852 3.2005 3.94812C3.22487 3.91593 3.25589 3.88936 3.29144 3.87022C3.32699 3.85108 3.36625 3.83982 3.40654 3.8372C3.44684 3.83459 3.48722 3.84068 3.52495 3.85506C3.56268 3.86945 3.59686 3.89179 3.62519 3.92056L11.0794 11.3754C11.1082 11.4037 11.1306 11.4378 11.1451 11.4755C11.1595 11.5132 11.1656 11.5536 11.1631 11.5939C11.1605 11.6342 11.1493 11.6735 11.1302 11.709C11.1111 11.7446 11.0846 11.7757 11.0524 11.8001C10.2658 12.3724 9.34418 12.7308 8.37756 12.8402C7.41095 12.9497 6.43249 12.8064 5.53785 12.4244C4.64322 12.0423 3.86303 11.4347 3.2736 10.6608C2.68416 9.88695 2.30564 8.97336 2.17507 8.00937ZM7.75 0.5C6.41498 0.5 5.10994 0.895881 3.9999 1.63758C2.88987 2.37928 2.02471 3.43349 1.51382 4.66689C1.00292 5.90029 0.869252 7.25749 1.1297 8.56686C1.39015 9.87623 2.03303 11.079 2.97703 12.023C3.92104 12.967 5.12377 13.6098 6.43314 13.8703C7.74251 14.1307 9.09971 13.9971 10.3331 13.4862C11.5665 12.9753 12.6207 12.1101 13.3624 11.0001C14.1041 9.89007 14.5 8.58502 14.5 7.25C14.4981 5.46038 13.7863 3.74462 12.5208 2.47917C11.2554 1.21372 9.53962 0.501936 7.75 0.5Z"></path></mask><path d="M11.8748 10.58L4.42057 3.12406C4.39176 3.09578 4.36938 3.06162 4.35495 3.02391C4.34052 2.98621 4.33438 2.94584 4.33694 2.90554C4.3395 2.86525 4.35071 2.82598 4.3698 2.79041C4.38888 2.75483 4.41541 2.72379 4.44756 2.69937C5.53037 1.91179 6.85875 1.53658 8.19359 1.6413C9.52844 1.74602 10.7821 2.32379 11.7288 3.2706C12.6755 4.21741 13.2532 5.47107 13.3578 6.80592C13.4625 8.14077 13.0872 9.46912 12.2995 10.5519C12.2751 10.584 12.244 10.6106 12.2085 10.6296C12.1729 10.6487 12.1336 10.6599 12.0933 10.6625C12.053 10.6651 12.0127 10.6589 11.975 10.6445C11.9373 10.6301 11.9031 10.6077 11.8748 10.5789V10.58ZM2.17507 8.00937C1.97928 6.57398 2.34677 5.11852 3.2005 3.94812C3.22487 3.91593 3.25589 3.88936 3.29144 3.87022C3.32699 3.85108 3.36625 3.83982 3.40654 3.8372C3.44684 3.83459 3.48722 3.84068 3.52495 3.85506C3.56268 3.86945 3.59686 3.89179 3.62519 3.92056L11.0794 11.3754C11.1082 11.4037 11.1306 11.4378 11.1451 11.4755C11.1595 11.5132 11.1656 11.5536 11.1631 11.5939C11.1605 11.6342 11.1493 11.6735 11.1302 11.709C11.1111 11.7446 11.0846 11.7757 11.0524 11.8001C10.2658 12.3724 9.34418 12.7308 8.37756 12.8402C7.41095 12.9497 6.43249 12.8064 5.53785 12.4244C4.64322 12.0423 3.86303 11.4347 3.2736 10.6608C2.68416 9.88695 2.30564 8.97336 2.17507 8.00937ZM7.75 0.5C6.41498 0.5 5.10994 0.895881 3.9999 1.63758C2.88987 2.37928 2.02471 3.43349 1.51382 4.66689C1.00292 5.90029 0.869252 7.25749 1.1297 8.56686C1.39015 9.87623 2.03303 11.079 2.97703 12.023C3.92104 12.967 5.12377 13.6098 6.43314 13.8703C7.74251 14.1307 9.09971 13.9971 10.3331 13.4862C11.5665 12.9753 12.6207 12.1101 13.3624 11.0001C14.1041 9.89007 14.5 8.58502 14.5 7.25C14.4981 5.46038 13.7863 3.74462 12.5208 2.47917C11.2554 1.21372 9.53962 0.501936 7.75 0.5Z"></path><path d="M11.8748 10.58L11.6627 10.7921L12.1748 11.3044V10.58H11.8748ZM4.42057 3.12406L4.63273 2.91195L4.63076 2.91001L4.42057 3.12406ZM4.44756 2.69937L4.27106 2.45671L4.26617 2.46043L4.44756 2.69937ZM12.2995 10.5519L12.5385 10.7333L12.5421 10.7284L12.2995 10.5519ZM11.8748 10.5789L12.0889 10.3687L11.5748 9.84519V10.5789H11.8748ZM3.2005 3.94812L2.96126 3.76704L2.95813 3.77133L3.2005 3.94812ZM3.62519 3.92056L3.41139 4.13102L3.41305 4.13269L3.62519 3.92056ZM11.0794 11.3754L10.8673 11.5875L10.8692 11.5894L11.0794 11.3754ZM11.0524 11.8001L11.229 12.0427L11.2338 12.039L11.0524 11.8001ZM14.5 7.25H14.8V7.24967L14.5 7.25ZM12.087 10.3679L4.63272 2.91195L4.20841 3.33617L11.6627 10.7921L12.087 10.3679ZM4.63076 2.91001C4.63268 2.9119 4.63417 2.91417 4.63513 2.91669L4.07477 3.13114C4.10459 3.20906 4.15084 3.27965 4.21037 3.33811L4.63076 2.91001ZM4.63513 2.91669C4.6361 2.9192 4.63651 2.92189 4.63633 2.92458L4.03754 2.88651C4.03225 2.96978 4.04495 3.05321 4.07477 3.13114L4.63513 2.91669ZM4.63633 2.92458C4.63616 2.92726 4.63542 2.92988 4.63414 2.93225L4.10545 2.64857C4.066 2.72209 4.04284 2.80324 4.03754 2.88651L4.63633 2.92458ZM4.63414 2.93225C4.63287 2.93462 4.6311 2.93669 4.62896 2.93832L4.26617 2.46043C4.19971 2.51088 4.1449 2.57504 4.10545 2.64857L4.63414 2.93225ZM4.62403 2.94199C5.64905 2.19643 6.90653 1.84125 8.17013 1.94039L8.21706 1.34222C6.81098 1.23191 5.4117 1.62714 4.2711 2.45676L4.62403 2.94199ZM8.17013 1.94039C9.43373 2.03952 10.6204 2.58645 11.5167 3.48272L11.9409 3.05847C10.9437 2.06113 9.62314 1.45253 8.21706 1.34222L8.17013 1.94039ZM11.5167 3.48272C12.4129 4.379 12.9597 5.56575 13.0588 6.82936L13.6569 6.78248C13.5467 5.37639 12.9382 4.05582 11.9409 3.05847L11.5167 3.48272ZM13.0588 6.82936C13.1578 8.09297 12.8025 9.35043 12.0569 10.3754L12.5421 10.7284C13.3718 9.58782 13.7671 8.18857 13.6569 6.78248L13.0588 6.82936ZM12.0606 10.3705C12.0622 10.3683 12.0643 10.3666 12.0666 10.3653L12.3503 10.894C12.4238 10.8545 12.488 10.7997 12.5384 10.7333L12.0606 10.3705ZM12.0666 10.3653C12.069 10.364 12.0716 10.3633 12.0743 10.3631L12.1124 10.9619C12.1956 10.9566 12.2768 10.9334 12.3503 10.894L12.0666 10.3653ZM12.0743 10.3631C12.077 10.3629 12.0797 10.3633 12.0822 10.3643L11.8677 10.9247C11.9457 10.9545 12.0291 10.9672 12.1124 10.9619L12.0743 10.3631ZM12.0822 10.3643C12.0847 10.3653 12.087 10.3668 12.0889 10.3687L11.6608 10.7891C11.7192 10.8486 11.7898 10.8948 11.8677 10.9247L12.0822 10.3643ZM11.5748 10.5789V10.58H12.1748V10.5789H11.5748ZM2.47231 7.96883C2.287 6.61025 2.63483 5.23268 3.44287 4.12492L2.95813 3.77133C2.05871 5.00436 1.67155 6.53771 1.87782 8.04992L2.47231 7.96883ZM3.43971 4.12918C3.43808 4.13133 3.43602 4.1331 3.43364 4.13437L3.14923 3.60607C3.07576 3.64562 3.01166 3.70053 2.9613 3.76707L3.43971 4.12918ZM3.43364 4.13437C3.43127 4.13565 3.42866 4.1364 3.42597 4.13657L3.38711 3.53783C3.30384 3.54324 3.22271 3.56651 3.14923 3.60607L3.43364 4.13437ZM3.42597 4.13657C3.42328 4.13675 3.42059 4.13634 3.41808 4.13538L3.63182 3.57475C3.55384 3.54502 3.47039 3.53243 3.38711 3.53783L3.42597 4.13657ZM3.41808 4.13538C3.41556 4.13443 3.41328 4.13294 3.41139 4.13102L3.83899 3.71011C3.78045 3.65064 3.70979 3.60447 3.63182 3.57475L3.41808 4.13538ZM3.41305 4.13269L10.8673 11.5875L11.2916 11.1632L3.83733 3.70844L3.41305 4.13269ZM10.8692 11.5894C10.8673 11.5875 10.8658 11.5853 10.8649 11.5827L11.4252 11.3683C11.3954 11.2904 11.3492 11.2198 11.2896 11.1613L10.8692 11.5894ZM10.8649 11.5827C10.8639 11.5802 10.8635 11.5775 10.8637 11.5749L11.4625 11.6129C11.4678 11.5297 11.4551 11.4462 11.4252 11.3683L10.8649 11.5827ZM10.8637 11.5749C10.8638 11.5722 10.8646 11.5696 10.8659 11.5672L11.3946 11.8509C11.434 11.7774 11.4572 11.6962 11.4625 11.6129L10.8637 11.5749ZM10.8659 11.5672C10.8671 11.5648 10.8689 11.5627 10.871 11.5611L11.2338 12.039C11.3003 11.9886 11.3551 11.9244 11.3946 11.8509L10.8659 11.5672ZM10.8759 11.5575C10.1313 12.0993 9.25884 12.4386 8.34382 12.5421L8.41131 13.1383C9.42951 13.0231 10.4004 12.6455 11.2289 12.0426L10.8759 11.5575ZM8.34382 12.5421C7.4288 12.6457 6.50255 12.5101 5.65566 12.1485L5.42004 12.7003C6.36243 13.1027 7.39311 13.2536 8.41131 13.1383L8.34382 12.5421ZM5.65566 12.1485C4.80877 11.7868 4.07023 11.2116 3.51225 10.479L3.03494 10.8426C3.65584 11.6578 4.47766 12.2979 5.42004 12.7003L5.65566 12.1485ZM3.51225 10.479C2.95427 9.74647 2.59596 8.88164 2.47235 7.96911L1.87778 8.04964C2.01533 9.06507 2.41404 10.0274 3.03494 10.8426L3.51225 10.479ZM7.75 0.2C6.35564 0.2 4.9926 0.613475 3.83323 1.38814L4.16657 1.88702C5.22727 1.17829 6.47431 0.8 7.75 0.8V0.2ZM3.83323 1.38814C2.67387 2.1628 1.77025 3.26386 1.23665 4.55208L1.79098 4.78169C2.27917 3.60311 3.10588 2.59576 4.16657 1.88702L3.83323 1.38814ZM1.23665 4.55208C0.703055 5.8403 0.563441 7.25782 0.835467 8.62539L1.42394 8.50833C1.17506 7.25715 1.30279 5.96027 1.79098 4.78169L1.23665 4.55208ZM0.835467 8.62539C1.10749 9.99295 1.77894 11.2491 2.7649 12.2351L3.18916 11.8108C2.28712 10.9088 1.67281 9.75951 1.42394 8.50833L0.835467 8.62539ZM2.7649 12.2351C3.75086 13.2211 5.00705 13.8925 6.37462 14.1645L6.49167 13.5761C5.24049 13.3272 4.09121 12.7129 3.18916 11.8108L2.7649 12.2351ZM6.37462 14.1645C7.74218 14.4366 9.1597 14.2969 10.4479 13.7633L10.2183 13.209C9.03973 13.6972 7.74285 13.8249 6.49167 13.5761L6.37462 14.1645ZM10.4479 13.7633C11.7361 13.2298 12.8372 12.3261 13.6119 11.1668L13.113 10.8334C12.4042 11.8941 11.3969 12.7208 10.2183 13.209L10.4479 13.7633ZM13.6119 11.1668C14.3865 10.0074 14.8 8.64436 14.8 7.25H14.2C14.2 8.52569 13.8217 9.77273 13.113 10.8334L13.6119 11.1668ZM14.8 7.24967C14.798 5.38061 14.0546 3.58867 12.733 2.26703L12.3087 2.6913C13.518 3.90057 14.1982 5.54016 14.2 7.25032L14.8 7.24967ZM12.733 2.26703C11.4113 0.945402 9.6194 0.202022 7.75033 0.2L7.74968 0.8C9.45984 0.80185 11.0994 1.48203 12.3087 2.6913L12.733 2.26703Z" mask="url(#path-1-outside-1)"></path></g></svg>